<?xml version="1.0" standalone="no"?>
<!DOCTYPE svg PUBLIC "-//W3C//DTD SVG 20010904//EN"
 "http://www.w3.org/TR/2001/REC-SVG-20010904/DTD/svg10.dtd">
<svg version="1.0" xmlns="http://www.w3.org/2000/svg"
 width="16.000000pt" height="16.000000pt" viewBox="0 0 16.000000 16.000000"
 preserveAspectRatio="xMidYMid meet">
<metadata>
Created by potrace 1.11, written by Peter Selinger 2001-2013
</metadata>
<g transform="translate(0.000000,16.000000) scale(0.006154,-0.006154)"
fill="#000000" stroke="none">
<path d="M1355 2408 c-65 -52 -117 -105 -140 -145 -22 -37 -38 -41 -57 -15
-15 22 -65 23 -78 2 -10 -16 -13 -44 -11 -102 1 -21 -2 -38 -7 -38 -4 0 -31
24 -59 54 -28 30 -57 56 -64 57 -20 4 -61 -20 -54 -32 11 -17 -34 -9 -47 9
-19 26 -70 60 -104 68 -16 4 -33 10 -39 14 -5 4 -23 6 -40 6 -25 -1 -31 -6
-33 -27 -2 -15 4 -44 13 -65 9 -22 19 -50 21 -64 9 -51 26 -90 42 -99 12 -7
14 -13 7 -20 -7 -7 -23 -4 -52 10 -23 11 -48 22 -55 23 -7 1 -18 5 -25 9 -7 4
-29 10 -50 12 -21 2 -60 7 -88 11 -97 14 -152 12 -253 -11 -33 -8 -27 -27 28
-86 28 -29 50 -56 50 -60 0 -4 6 -14 12 -21 20 -21 68 -86 68 -92 0 -6 83
-126 109 -159 45 -55 96 -97 144 -119 41 -19 49 -38 15 -39 -83 -2 -197 -56
-263 -123 -40 -41 -92 -116 -81 -116 4 0 0 -12 -7 -27 -13 -24 -14 -69 -3 -81
2 -2 47 -4 99 -6 56 -1 101 -7 109 -14 8 -6 18 -9 21 -5 4 3 7 1 7 -5 0 -7 3
-11 8 -10 4 1 30 -2 57 -6 28 -4 59 -9 70 -11 11 -1 43 -9 70 -17 44 -13 146
-15 235 -6 19 2 25 -2 26 -17 1 -33 15 -75 25 -75 5 0 9 -7 9 -15 0 -9 5 -21
10 -28 54 -64 142 -234 145 -280 3 -48 16 -61 49 -53 14 3 29 6 33 6 12 -2 3
-32 -18 -58 -39 -50 -24 -84 74 -171 34 -30 35 -70 2 -109 -24 -28 -24 -31 -9
-47 28 -27 93 1 94 41 0 6 7 17 15 24 33 28 16 80 -50 150 -23 25 -45 55 -48
67 -7 29 32 81 113 153 69 61 118 109 140 137 26 33 60 107 60 130 0 34 15 36
69 9 112 -54 311 -49 374 9 14 14 30 26 34 26 15 2 58 19 78 31 66 38 125 68
125 63 0 -3 14 1 30 10 40 21 38 47 -6 87 -20 18 -46 42 -58 53 -51 47 -114
95 -125 95 -6 0 -11 4 -11 10 0 10 -98 60 -117 60 -6 0 -13 6 -16 14 -4 10 18
26 72 54 43 22 87 47 97 56 79 69 134 128 134 144 0 10 15 30 33 45 71 56 129
123 133 154 1 7 9 20 18 29 16 16 20 30 18 73 -2 28 -20 43 -42 35 -23 -9 -51
-14 -100 -19 -109 -12 -190 -32 -266 -67 -22 -10 -46 -18 -52 -18 -17 0 -15
30 3 36 8 4 15 16 15 28 0 12 8 46 19 75 30 87 12 238 -32 262 -16 9 -87 -48
-168 -135 -34 -36 -59 -41 -59 -13 0 23 -17 38 -44 41 -19 2 -26 -1 -26 -14 0
-17 -27 -47 -34 -39 -2 2 -6 18 -9 35 -7 47 -47 114 -68 114 -4 0 -22 -12 -40
-27 -42 -35 -54 -36 -57 -5 -1 14 -8 33 -16 41 -15 17 -34 80 -41 133 -5 36
-8 40 -37 43 -15 2 -42 -12 -73 -37z"/>
</g>
</svg>
